<svg width="41" height="41" viewBox="0 0 41 41" fill="none" xmlns="http://www.w3.org/2000/svg">
<path d="M11.4646 32.3091C11.6986 32.1961 11.9357 32.0129 12.6473 30.9931C12.8455 30.7091 12.8845 30.6633 12.9267 30.6023C13.0534 30.4191 13.1347 30.2694 13.1477 30.2511C13.2321 30.0985 14.8567 27.61 18.931 21.3934C14.9249 21.4789 10.9155 21.5675 6.90939 21.653C6.90939 21.653 4.57005 21.3568 5.21986 22.9354L8.02058 27.781C8.02058 27.781 9.30073 29.5916 10.7336 27.436C9.71986 26.1719 8.70614 24.9109 7.69242 23.6498L15.1231 23.317C13.7487 25.546 12.3711 27.7779 10.9968 30.0069C10.9968 30.0069 10.5386 30.871 7.86788 30.5656L2.45813 30.2511C2.92276 29.7748 3.61156 28.9382 4.02745 27.7321C4.13792 27.4085 4.30362 26.9138 4.32961 26.2727C4.38485 24.8956 3.75127 23.8056 3.34839 23.2407C3.24766 23.0697 3.1047 22.8193 2.94225 22.514C2.72456 22.1049 2.41265 21.5125 2.30218 21.1583C2.2112 20.8652 2.04875 20.0652 2.88702 18.7951C2.5751 18.3035 2.25994 17.8119 1.94803 17.3203C1.39893 17.7997 0.264997 18.9203 0.0440584 20.4164C0.0148165 20.6148 -0.0274217 20.908 0.0245638 21.2896C0.14478 22.1812 0.64839 22.6484 1.19099 23.4697C1.74983 24.3185 2.06499 24.7918 2.17546 25.4513C2.45164 27.0604 1.36319 28.7855 1.00904 29.2496C0.979797 29.2863 0.778354 29.5519 0.570412 29.9397C0.32348 30.4038 0.177271 30.6786 0.213011 30.9626C0.268246 31.387 0.713372 31.674 1.04478 31.8358C1.23972 31.9305 1.45092 31.9824 1.66861 31.9946L10.5744 32.5045C11.0065 32.5045 11.2989 32.3976 11.4679 32.3152" fill="#BE9761"/>
<path d="M5.65844 19.3846C5.90537 19.7174 6.16854 19.8793 6.3375 19.9617C6.57143 20.0747 6.8671 20.154 8.16349 20.1082C8.4754 20.096 8.78731 20.0869 9.09923 20.0625C9.82052 19.9983 12.3483 19.9189 19.2007 19.8243C17.1212 16.6549 15.0451 13.4856 12.9656 10.3132C12.9656 10.3132 11.8707 8.34686 10.8765 9.75749L8.2837 14.7039C8.2837 14.7039 7.44869 16.7313 10.1519 16.5847C10.662 15.0794 11.1754 13.5711 11.6855 12.0658C13.0891 14.084 14.496 16.1023 15.8996 18.1205C13.2906 18.1724 10.6815 18.2213 8.07251 18.2732C8.07251 18.2732 7.05555 18.4198 5.77865 16.1969L2.92595 11.8643C3.60826 11.9437 4.73569 11.9925 6.01908 11.6139C6.36349 11.5132 6.88984 11.3544 7.46168 11.0032C8.69309 10.2491 9.27143 9.13767 9.52811 8.49952C9.61908 8.32243 9.75229 8.069 9.92449 7.76673C10.1324 7.40338 10.5386 6.72554 10.7335 6.49349C11.3703 5.72711 12.9916 5.84313 13.8429 5.95611L14.8826 4.38365C14.3075 4.21571 11.7537 3.52261 10.0772 4.33174C9.62233 4.55158 9.31042 4.82027 9.31042 4.82027C8.60536 5.42788 8.4884 6.08435 8.08876 6.97286C7.67612 7.89191 7.44544 8.40487 6.93858 8.87203C5.69742 10.014 3.56927 10.1758 2.96169 10.1697C2.91295 10.1697 2.5653 10.1666 2.10718 10.2308C1.56133 10.3071 1.23642 10.3559 1.01223 10.5452C0.810789 10.7193 0.73281 10.9758 0.713316 11.2261C0.684074 11.6292 0.80429 12.0261 1.03173 12.3681L5.65844 19.3846Z" fill="#BE9761"/>
<path d="M38.9032 15.8063C38.666 14.1911 39.7967 12.4874 40.1606 12.0324C40.1898 11.9958 40.401 11.7363 40.6154 11.3516C40.8754 10.8936 41.0281 10.6218 40.9956 10.3379C40.9696 10.0814 40.7974 9.87069 40.5927 9.70581C40.2678 9.44323 39.8552 9.29972 39.4263 9.26613L30.6732 8.57914C30.2411 8.56692 29.9487 8.66768 29.7765 8.74707C29.5393 8.85699 29.2956 9.03408 28.5613 10.0356C28.3859 10.2768 28.2072 10.518 28.0447 10.7684C27.5378 11.5561 25.2732 14.9911 22.1313 19.7543L34.0718 19.4948C34.0718 19.4948 36.4046 19.8398 35.7905 18.249L33.11 13.3454C33.11 13.3454 31.8754 11.5073 30.3905 13.6324C31.3718 14.9148 32.3562 16.2002 33.3407 17.4826C30.8389 17.5742 28.3371 17.6689 25.8353 17.7605C27.2877 15.5254 28.7368 13.2904 30.1891 11.0554C30.1891 11.0554 30.6667 10.2005 33.331 10.5638L38.731 10.9943C38.2566 11.4615 37.545 12.2828 37.1032 13.4797C36.983 13.8003 36.8043 14.2919 36.7653 14.9331C36.6775 16.3101 37.2819 17.4093 37.675 17.9864C37.7725 18.1605 37.9089 18.4139 38.0649 18.7223C38.2631 19.1192 38.5718 19.7329 38.6725 20.0902C38.7537 20.3741 38.8999 21.1802 37.9999 22.4412L38.9487 23.9251C39.514 23.4519 40.6577 22.3618 40.9111 20.881C40.9436 20.6825 40.9923 20.3924 40.9501 20.0108C40.8494 19.1161 40.3588 18.6368 39.8357 17.8063C39.2963 16.9452 38.9941 16.4659 38.8967 15.8063" fill="#BE9761"/>
<path d="M35.5502 21.7968C35.3065 21.4609 35.0498 21.2961 34.8776 21.2106C34.6469 21.0945 34.3513 21.0121 33.0549 21.0365C32.743 21.0426 32.4311 21.0487 32.1191 21.0701C31.3978 21.122 28.8895 21.2014 22.0859 21.3235C24.0906 24.4715 26.0921 27.6195 28.0968 30.7644C28.0968 30.7644 29.1592 32.746 30.1762 31.3476L32.8469 26.4379C32.8469 26.4379 33.7144 24.4227 31.0112 24.5295C30.4783 26.0287 29.9422 27.5279 29.4061 29.0271C28.1325 27.0363 26.8621 25.0486 25.5885 23.0609C28.0968 22.9968 30.6083 22.9357 33.1166 22.8716C33.1166 22.8716 34.1336 22.7372 35.378 24.9814L38.1592 29.3538C37.4769 29.2652 36.3527 29.2011 35.0596 29.5614C34.7119 29.6591 34.1823 29.8087 33.6072 30.1507C32.3661 30.8865 31.7682 31.9918 31.5018 32.6269C31.4076 32.804 31.2711 33.0544 31.0924 33.3536C30.8682 33.7353 30.4653 34.3795 30.2672 34.6177C29.6108 35.3994 28.0838 35.3963 27.213 35.3261L26.2025 36.8772C26.8264 37.0298 29.2307 37.5611 30.891 36.7856C31.0632 36.7062 31.3524 36.5688 31.6675 36.3062C32.3823 35.7077 32.509 35.0543 32.9217 34.1689C33.3505 33.2559 33.5877 32.746 34.1011 32.285C35.3585 31.1613 37.4899 31.0301 38.0975 31.0423C38.1462 31.0423 38.4939 31.0514 38.952 30.9934C39.5011 30.9232 39.8227 30.8804 40.0502 30.6942C40.2809 30.5018 40.3556 30.2057 40.3653 29.9247C40.3783 29.5553 40.2646 29.192 40.0632 28.8744L35.5437 21.7907L35.5502 21.7968Z" fill="#BE9761"/>
<path d="M14.392 8.71337C14.3887 8.96069 14.444 9.24465 15.0581 10.3164C15.2465 10.6431 15.4057 10.9057 15.5162 11.0827C17.2025 13.7086 18.8887 16.3345 20.5718 18.9603C22.557 15.9803 24.5454 13.0033 26.5306 10.0232C26.5306 10.0232 27.9212 8.23095 26.1342 8.01722L20.2664 8.02332C20.2664 8.02332 17.9628 8.21873 19.2981 10.4293C20.9617 10.1912 22.6252 9.95607 24.2887 9.71792C23.0671 11.5713 21.8454 13.4277 20.6205 15.2811C19.3339 13.3269 18.0505 11.3759 16.7638 9.42174C16.7638 9.42174 16.1725 8.63093 17.7321 6.56994L20.6043 2.24949C20.8285 2.86016 21.2833 3.82806 22.2126 4.74405C22.4627 4.98832 22.8461 5.36388 23.4342 5.69058C24.6981 6.39285 26.0173 6.38674 26.7386 6.32262C26.9465 6.32262 27.2487 6.32262 27.6126 6.33178C28.0999 6.34705 28.8017 6.36842 29.1851 6.44781C29.3638 6.48445 29.705 6.5791 30.1079 6.88443L32.6259 7.06763C32.3237 6.36842 31.8104 5.5257 30.9559 4.93336C30.7837 4.81428 30.5302 4.64329 30.1501 4.50284C29.2598 4.17919 28.5808 4.37155 27.5541 4.42651C26.4949 4.48452 25.9035 4.51811 25.231 4.29827C23.5934 3.75783 22.4952 2.03881 22.2321 1.52585C22.2093 1.48311 22.0599 1.18999 21.7934 0.83275C21.4783 0.408338 21.2898 0.154912 21.0072 0.0510995C20.7505 -0.0435534 20.4743 0.00529969 20.2274 0.0999527C19.831 0.252619 19.5061 0.533524 19.2786 0.875496L14.6357 7.88287C14.4277 8.24011 14.3887 8.53017 14.3855 8.71032" fill="#BE9761"/>
<path d="M26.8523 32.2611C26.8523 32.0138 26.7971 31.7298 26.1733 30.6611C25.9848 30.3375 25.8224 30.0749 25.7086 29.8978C24.0061 27.2811 22.3003 24.6675 20.5978 22.0508C18.6321 25.043 16.6664 28.0322 14.7007 31.0245C14.7007 31.0245 13.3231 32.826 15.1101 33.0275L20.978 32.9847C20.978 32.9847 23.2816 32.7771 21.9299 30.5726C20.2664 30.8199 18.6061 31.0672 16.9426 31.3146L20.5718 25.73C21.8715 27.675 23.1678 29.62 24.4675 31.5649C24.4675 31.5649 25.0653 32.3527 23.5188 34.4228L20.679 38.7616C20.4484 38.1509 19.9902 37.1861 19.0512 36.2762C18.8011 36.0319 18.4144 35.6594 17.8231 35.3358C16.5559 34.6396 15.2368 34.6549 14.5123 34.7221C14.3043 34.7251 14.0022 34.7282 13.6383 34.719C13.1509 34.7068 12.4491 34.6885 12.0624 34.6121C11.887 34.5786 11.5523 34.487 11.1527 34.1908L8.61841 34.0137C8.92707 34.7129 9.44368 35.5495 10.3014 36.1327C10.4736 36.2487 10.7303 36.4228 11.1105 36.5571C12.004 36.8777 12.6798 36.6792 13.7065 36.6151C14.7657 36.551 15.357 36.5144 16.0296 36.7312C17.6704 37.2594 18.7783 38.9753 19.048 39.4852C19.0707 39.528 19.2234 39.8211 19.4899 40.1753C19.8083 40.5997 19.9967 40.8501 20.2794 40.9508C20.6758 41.0944 21.1242 40.8989 21.4296 40.7096C21.6375 40.5814 21.813 40.4074 21.9462 40.2089L26.6021 33.0855C26.8068 32.7282 26.8426 32.4351 26.8458 32.255" fill="#BE9761"/>
</svg>
